/* XPM */
static char *result[] = {
/* columns rows colors chars-per-pixel */
"32 32 75 1 ",
"  c #654C1A",
". c #6D531D",
"X c #72561D",
"o c #76591E",
"O c #7C5E21",
"+ c #7F6021",
"@ c #836322",
"# c #886726",
"$ c #8D6B25",
"% c #8D6C2A",
"& c #916D26",
"* c #916E29",
"= c #957127",
"- c #997327",
"; c #95722B",
": c #9A752A",
"> c #9E792C",
", c #8F7132",
"< c #937433",
"1 c #987630",
"2 c #9E7A32",
"3 c #977939",
"4 c #997B3D",
"5 c #A37C2D",
"6 c #A27D32",
"7 c #A27F3A",
"8 c #957A41",
"9 c #997D41",
"0 c #AC832E",
"q c #B68A2F",
"w c #A78134",
"e c #AC8432",
"r c #A2813C",
"t c #AA853A",
"y c #AE8839",
"u c #B18731",
"i c #B38A35",
"p c #BA8D32",
"a c #B38B3B",
"s c #B88E3B",
"d c #BE9031",
"f c #BA903C",
"g c #C39434",
"h c #CC9A36",
"j c #C7993B",
"k c #D2A039",
"l c #AF8D47",
"z c #A88A4B",
"x c #B38D40",
"c c #B79042",
"v c #B99241",
"b c #BA9548",
"n c #A88E54",
"m c #AE9152",
"M c #B19455",
"N c #BB9E5C",
"B c #C19740",
"V c #C39943",
"C c #C39D4D",
"Z c #C39F53",
"A c #D1A54A",
"S c #C4A054",
"D c #C9A65A",
"F c #D3AB56",
"G c #DAAE54",
"H c #D7B15E",
"J c #DDB45E",
"K c #E2B65C",
"L c #D5B364",
"P c #DDBC6A",
"I c #E3BD66",
"U c #E4BF6A",
"Y c #EBC56C",
"T c #ECC970",
"R c None",
/* pixels */
"RRRRRRRRRRRRResisisRRRRRRRRRRRRR",
"RRRRRRRRRR6fjgpu000eiiRRRRRRRRRR",
"RRRRRRRRrCABi6>>5:::->0eRRRRRRRR",
"RRRRRR9CFVaRRRRRRRRRR>=:5>RRRRRR",
"RRRRRzJFvRRRRRRRRRRRRRR>&&@RRRRR",
"RRRRmIFbRRRRRRRRRRRRRRRR5&@XRRRR",
"RRRnUHCRRRRRRRRRRRRRRRRRR5$o@RRR",
"RRRLISRRRRRRRRRRRRRRRRRRRR-#.RRR",
"RRNTDRRRRRRRRRRRRRRRRRRRRRR-+oRR",
"RRPLRRRRRRRRRRRRRRRRRRRRRRRR* RR",
"RMYZRRRRRRRRRRRRRRRRRRRRRRRR-OoR",
"RDLRRRRRRRRRRRRRRRRRRRRRRRRRR& R",
"RJZRRRRRRRRRRRRRRRRRRRRRRRRRR- R",
"8KlRRRRRRRRRRRRRRRRRRRRRRRRRR-.O",
"4GrRcaaRaRR6RR000RgRRhRRRkRRR=OX",
"3A3RaaaReRR>55RRRRqdghRRhghRR$OO",
"<j,RyRRRwRR555RRRR0RRpRpgRpRR:OO",
"<f<RwRRRR>>RRR::5R5RRuRu0uuuR>O#",
"1i<RRRRRRRRRRRRRRRRRRRRRRRRRR2O%",
"Ry:RRRRRRRRRRRRRRRRRRRRRRRRRR2%R",
"Re:RRRRRRRRRRRRRRRRRRRRRRRRRR61R",
"Ra;*RRRRRRRRRRRRRRRRRRRRRRRR722R",
"RR2%RRRRRRRRRRRRRRRRRRRRRRRRtwRR",
"RRa#$RRRRRRRRRRRRRRRRRRRRRRtttRR",
"RRR6@$RRRRRRRRRRRRRRRRRRRRraaRRR",
"RRRw*@$RRRRRRRRRRRRRRRRRR7xxxRRR",
"RRRR0@@:RRRRRRRRRRRRRRRRzxxcRRRR",
"RRRRR>o+>RRRRRRRRRRRRRRtyavRRRRR",
"RRRRRRw&o&5RRRRRRRRRRtyysvRRRRRR",
"RRRRRRRR5$@$>wuuui0wewasRRRRRRRR",
"RRRRRRRRRR0:$@@$&;:5ysRRRRRRRRRR",
"RRRRRRRRRRRRRiue66wRRRRRRRRRRRRR"
};
