/* XPM */
static char *result[] = {
/* columns rows colors chars-per-pixel */
"64 64 138 2 ",
"   c #4D3B14",
".  c #533F15",
"X  c #523F18",
"o  c #564116",
"O  c #5A4416",
"+  c #564119",
"@  c #5B4518",
"#  c #5F4819",
"$  c #634A19",
"%  c #684F1B",
"&  c #6C521C",
"*  c #72561D",
"=  c #75591E",
"-  c #7B5C1F",
";  c #705722",
":  c #775B23",
">  c #7C5E21",
",  c #7F6227",
"<  c #7D632D",
"1  c #7D6533",
"2  c #836323",
"3  c #896723",
"4  c #8C6A25",
"5  c #84662A",
"6  c #86692D",
"7  c #8B6B2B",
"8  c #916E26",
"9  c #916F29",
"0  c #957026",
"q  c #997327",
"w  c #95722A",
"e  c #9A762B",
"r  c #9E792D",
"t  c #806733",
"y  c #866A31",
"u  c #896D33",
"i  c #826B39",
"p  c #8D7136",
"a  c #8B733F",
"s  c #917232",
"d  c #997732",
"f  c #9C7932",
"g  c #92763C",
"h  c #9A7C3C",
"j  c #A37C2C",
"k  c #A87F2C",
"l  c #A27E32",
"z  c #A17F39",
"x  c #8A7342",
"c  c #8F7845",
"v  c #937C4B",
"b  c #957F50",
"n  c #AC822E",
"m  c #B2862F",
"M  c #B78A2F",
"N  c #A68134",
"B  c #AB8433",
"V  c #A4823A",
"C  c #AB853A",
"Z  c #AE893C",
"A  c #B18732",
"S  c #B48A33",
"D  c #B98D33",
"F  c #B38C3B",
"G  c #B98E39",
"H  c #BE9133",
"J  c #BC913B",
"K  c #C39433",
"L  c #C89734",
"P  c #CC9B36",
"I  c #C2963E",
"U  c #C5993F",
"Y  c #CA9B3D",
"T  c #D29F37",
"R  c #D4A13B",
"E  c #978152",
"W  c #9A8352",
"Q  c #A48442",
"!  c #AA8945",
"~  c #AB8C4B",
"^  c #B48F41",
"/  c #B08F4A",
"(  c #B79142",
")  c #BB9342",
"_  c #B5934C",
"`  c #BA964B",
"'  c #BE9A4E",
"]  c #A58B54",
"[  c #AE9154",
"{  c #BD9B53",
"}  c #B79A59",
"|  c #BC9D5A",
" . c #C29740",
".. c #C39944",
"X. c #CA9D42",
"o. c #C29C4C",
"O. c #C99F49",
"+. c #C29E53",
"@. c #CFA244",
"#. c #CBA149",
"$. c #D5A646",
"%. c #D9A946",
"&. c #D5A749",
"*. c #D5A94F",
"=. c #DAAC4E",
"-. c #C5A155",
";. c #CEA654",
":. c #C7A55A",
">. c #C9A458",
",. c #CEAA5C",
"<. c #D4AB55",
"1. c #DCAE51",
"2. c #D1AB5A",
"3. c #DEB257",
"4. c #D7B05D",
"5. c #DDB259",
"6. c #E2B455",
"7. c #E4B75A",
"8. c #E6B85A",
"9. c #E9BC5E",
"0. c #D6B363",
"q. c #DCB662",
"w. c #DEBA66",
"e. c #E2BB64",
"r. c #E2BF69",
"t. c #EDC265",
"y. c #EAC56C",
"u. c #EEC86D",
"i. c #F2C566",
"p. c #F6CA6C",
"a. c #FACC6E",
"s. c #F5CF72",
"d. c #FBCF70",
"f. c #F7D476",
"g. c #FAD274",
"h. c #FAD678",
"j. c #FEDB7C",
"k. c None",
/* pixels */
"k.k.k.k.k.k.k.k.k.k.k.k.k.k.k.k.k.k.k.k.k.k.k.k.k.k.k.k.w e r r r j k B k.k.k.k.k.k.k.k.k.k.k.k.k.k.k.k.k.k.k.k.k.k.k.k.k.k.k.k.",
"k.k.k.k.k.k.k.k.k.k.k.k.k.k.k.k.k.k.k.k.k.k.k., 7 e n D I Y X.Y Y U U I J F A B A k.k.k.k.k.k.k.k.k.k.k.k.k.k.k.k.k.k.k.k.k.k.k.",
"k.k.k.k.k.k.k.k.k.k.k.k.k.k.k.k.k.k.k.k.< 5 d B S H K H H D M S A n n n n S J U  .B n A k.k.k.k.k.k.k.k.k.k.k.k.k.k.k.k.k.k.k.k.",
"k.k.k.k.k.k.k.k.k.k.k.k.k.k.k.k.k.k.< 6 l G X.&.%.$.P I D M n n k k k k k k k j k S I J B B k.k.k.k.k.k.k.k.k.k.k.k.k.k.k.k.k.k.",
"k.k.k.k.k.k.k.k.k.k.k.k.k.k.k.k.1 y V ..1.6.1.@.H B r r r e e d e e w w 8 8 8 e j e e n D J N N k.k.k.k.k.k.k.k.k.k.k.k.k.k.k.k.",
"k.k.k.k.k.k.k.k.k.k.k.k.k.k.k.t V #.6.8.=...B N B N l f k.k.k.k.k.k.k.k.k l j e 4 3 q q q j D A e k.k.k.k.k.k.k.k.k.k.k.k.k.k.k.",
"k.k.k.k.k.k.k.k.k.k.k.k.k.1 g o.7.k.1...C F F N k.k.k.k.k.k.k.k.k.k.k.k.k.k.k.k.k.n w 3 8 q 0 k G r e k.k.k.k.k.k.k.k.k.k.k.k.k.",
"k.k.k.k.k.k.k.k.k.k.k.k.i ! 3.i.9.#.F F C k.k.k.k.k.k.k.k.k.k.k.k.k.k.k.k.k.k.k.k.k.k.S r 3 8 0 w B k 4 k.k.k.k.k.k.k.k.k.k.k.k.",
"k.k.k.k.k.k.k.k.k.k.k.x ' t.k.3.) ( F k.k.k.k.k.k.k.k.k.k.k.k.k.k.k.k.k.k.k.k.k.k.k.k.k.k.D w 3 8 8 q e - k.k.k.k.k.k.k.k.k.k.k.",
"k.k.k.k.k.k.k.k.k.k.c ;.p.p.<.) ) k.k.k.k.k.k.k.k.k.k.k.k.k.k.k.k.k.k.k.k.k.k.k.k.k.k.k.k.k.k.B 3 8 4 4 3 = k.k.k.k.k.k.k.k.k.k.",
"k.k.k.k.k.k.k.k.k.v 2.a.p.<.` ( k.k.k.k.k.k.k.k.k.k.k.k.k.k.k.k.k.k.k.k.k.k.k.k.k.k.k.k.k.k.k.k.S 2 4 8 3 - % k.k.k.k.k.k.k.k.k.",
"k.k.k.k.k.k.k.k.E 2.g.a.;.` _ k.k.k.k.k.k.k.k.k.k.k.k.k.k.k.k.k.k.k.k.k.k.k.k.k.k.k.k.k.k.k.k.k.k.H 3 4 4 2 & % k.k.k.k.k.k.k.k.",
"k.k.k.k.k.k.k.v :.g.g.<.o.` k.k.k.k.k.k.k.k.k.k.k.k.k.k.k.k.k.k.k.k.k.k.k.k.k.k.k.k.k.k.k.k.k.k.k.k.H w 4 3 - $ , k.k.k.k.k.k.k.",
"k.k.k.k.k.k.E } s.h.4.+.' k.k.k.k.k.k.k.k.k.k.k.k.k.k.k.k.k.k.k.k.k.k.k.k.k.k.k.k.k.k.k.k.k.k.k.k.k.k.S w 4 3 * O e k.k.k.k.k.k.",
"k.k.k.k.k.k.] y.k.e.-.{ k.k.k.k.k.k.k.k.k.k.k.k.k.k.k.k.k.k.k.k.k.k.k.k.k.k.k.k.k.k.k.k.k.k.k.k.k.k.k.k.n 8 4 2 $ & k.k.k.k.k.k.",
"k.k.k.k.k.E 0.j.u.>.+.k.k.k.k.k.k.k.k.k.k.k.k.k.k.k.k.k.k.k.k.k.k.k.k.k.k.k.k.k.k.k.k.k.k.k.k.k.k.k.k.k.k.e 4 4 = O 3 k.k.k.k.k.",
"k.k.k.k.W } f.h.,.+.k.k.k.k.k.k.k.k.k.k.k.k.k.k.k.k.k.k.k.k.k.k.k.k.k.k.k.k.k.k.k.k.k.k.k.k.k.k.k.k.k.k.k.k.e 8 2 % o k k.k.k.k.",
"k.k.k.k.W y.k.w.>.k.k.k.k.k.k.k.k.k.k.k.k.k.k.k.k.k.k.k.k.k.k.k.k.k.k.k.k.k.k.k.k.k.k.k.k.k.k.k.k.k.k.k.k.k.k.e 8 - o - k.k.k.k.",
"k.k.k.E | h.s.:.+.k.k.k.k.k.k.k.k.k.k.k.k.k.k.k.k.k.k.k.k.k.k.k.k.k.k.k.k.k.k.k.k.k.k.k.k.k.k.k.k.k.k.k.k.k.k.e 9 3 % . j k.k.k.",
"k.k.k.E w.j.q.+.k.k.k.k.k.k.k.k.k.k.k.k.k.k.k.k.k.k.k.k.k.k.k.k.k.k.k.k.k.k.k.k.k.k.k.k.k.k.k.k.k.k.k.k.k.k.k.k.e 8 = . 2 k.k.k.",
"k.k.W [ s.s.-.{ k.k.k.k.k.k.k.k.k.k.k.k.k.k.k.k.k.k.k.k.k.k.k.k.k.k.k.k.k.k.k.k.k.k.k.k.k.k.k.k.k.k.k.k.k.k.k.k.r q 2 # O j k.k.",
"k.k.v ,.h.e.{ k.k.k.k.k.k.k.k.k.k.k.k.k.k.k.k.k.k.k.k.k.k.k.k.k.k.k.k.k.k.k.k.k.k.k.k.k.k.k.k.k.k.k.k.k.k.k.k.k.k.e 8 *   4 k.k.",
"k.k.v r.g.>.` k.k.k.k.k.k.k.k.k.k.k.k.k.k.k.k.k.k.k.k.k.k.k.k.k.k.k.k.k.k.k.k.k.k.k.k.k.k.k.k.k.k.k.k.k.k.k.k.k.k.r q - . = k.k.",
"k.v ~ p.y._ _ k.k.k.k.k.k.k.k.k.k.k.k.k.k.k.k.k.k.k.k.k.k.k.k.k.k.k.k.k.k.k.k.k.k.k.k.k.k.k.k.k.k.k.k.k.k.k.k.k.k.e j 3 # o e k.",
"k.x { a.4._ k.k.k.k.k.k.k.k.k.k.k.k.k.k.k.k.k.k.k.k.k.k.k.k.k.k.k.k.k.k.k.k.k.k.k.k.k.k.k.k.k.k.k.k.k.k.k.k.k.k.k.k.r 8 %   4 k.",
"k.x <.a.O.~ k.k.k.k.k.k.k.k.k.k.k.k.k.k.k.k.k.k.k.k.k.k.k.k.k.k.k.k.k.k.k.k.k.k.k.k.k.k.k.k.k.k.k.k.k.k.k.k.k.k.k.k.q q =   2 k.",
"k.x 3.i./ ! k.k.k.k.k.k.k.k.k.k.k.k.k.k.k.k.k.k.k.k.k.k.k.k.k.k.k.k.k.k.k.k.k.k.k.k.k.k.k.k.k.k.k.k.k.k.k.k.k.k.k.k.8 j > . = k.",
"k.h 8.e.Q ! k.k.k.k.k.k.k.k.k.k.k.k.k.k.k.k.k.k.k.k.k.k.k.k.k.k.k.k.k.k.k.k.k.k.k.k.k.k.k.k.k.k.k.k.k.k.k.k.k.k.k.k.2 j 2 . % k.",
"i h 8.3.h k.k.k.) ) ) ) J J J k.F G k.k.k.k.k.B A k.k.k.B n n m m D k.k.K P k.k.k.k.P R k.k.k.k.k.k.R k.k.k.k.k.k.k.k.j 3 o # 8 ",
"1 V 6.*.g k.k.V F ^ Z C Z Z k.k.C F k.k.k.k.k.l B k.j j j j j j k n k.k.M L k.k.k.k.P T k.k.k.k.k.T T R k.k.k.k.k.k.k.e 4 @ @ 9 ",
"1 Q 3.@.p k.k.V F ) k.k.k.k.k.k.B F k.k.k.k.k.j n k.j j k.k.k.k.k.k.k.k.m K k.k.k.k.L P k.k.k.k.P T P P T k.k.k.k.k.k.e 0 @ @ 8 ",
"1 z =...u k.k.z Z F F F F Z k.k.N A k.k.k.k.k.j B q j n k.k.k.k.k.k.k.k.m M D H H L K K k.k.k.K L L k.D K P k.k.k.k.k.w w @ $ 4 ",
"< h $.I u k.k.h C C l z l k.k.k.N B k.k.k.k.k.r k 9 j n k.k.k.k.k.k.k.k.n m n n n m D K k.k.k.K K L k.k.D D k.k.k.k.k.e q + % 4 ",
"< f X.I 6 k.k.f C F k.k.k.k.k.k.r B A k.k.k.j j l k.0 k n k.k.k.k.k.k.k.k M k.k.k.k.m D k.k.M D D k.k.k.m D K k.k.k.k.r w + ; 9 ",
"< f I I 6 k.k.f B F k.k.k.k.k.k.k.e j l l j j r k.k.k.9 e j j j j k k.k.k m k.k.k.k.n S k.n S D k.A S S S m A H k.k.k.B 9 + > 9 ",
"< f J J 6 k.k.k.k.k.k.k.k.k.k.k.k.k.k.k.k.k.k.k.k.k.k.k.k.k.k.k.k.k.k.k.k.k.k.k.k.k.k.k.k.k.k.k.k.k.k.k.k.k.k.k.k.k.k.B 5 + 3 9 ",
"k.f A J 6 d k.k.k.k.k.k.k.k.k.k.k.k.k.k.k.k.k.k.k.k.k.k.k.k.k.k.k.k.k.k.k.k.k.k.k.k.k.k.k.k.k.k.k.k.k.k.k.k.k.k.k.k.: S , % 9 k.",
"k.f B D w w k.k.k.k.k.k.k.k.k.k.k.k.k.k.k.k.k.k.k.k.k.k.k.k.k.k.k.k.k.k.k.k.k.k.k.k.k.k.k.k.k.k.k.k.k.k.k.k.k.k.k.k.5 F * 2 w k.",
"k.e S A l 5 k.k.k.k.k.k.k.k.k.k.k.k.k.k.k.k.k.k.k.k.k.k.k.k.k.k.k.k.k.k.k.k.k.k.k.k.k.k.k.k.k.k.k.k.k.k.k.k.k.k.k.k.9 C ; w s k.",
"k.w U f B 2 k.k.k.k.k.k.k.k.k.k.k.k.k.k.k.k.k.k.k.k.k.k.k.k.k.k.k.k.k.k.k.k.k.k.k.k.k.k.k.k.k.k.k.k.k.k.k.k.k.k.k.k.N d 5 w r k.",
"k.7 X.w B 5 f k.k.k.k.k.k.k.k.k.k.k.k.k.k.k.k.k.k.k.k.k.k.k.k.k.k.k.k.k.k.k.k.k.k.k.k.k.k.k.k.k.k.k.k.k.k.k.k.k.k.: J 5 e e d k.",
"k.k.F l e e 7 k.k.k.k.k.k.k.k.k.k.k.k.k.k.k.k.k.k.k.k.k.k.k.k.k.k.k.k.k.k.k.k.k.k.k.k.k.k.k.k.k.k.k.k.k.k.k.k.k.k.p F 7 l f k.k.",
"k.k.B ..2 j 2 k.k.k.k.k.k.k.k.k.k.k.k.k.k.k.k.k.k.k.k.k.k.k.k.k.k.k.k.k.k.k.k.k.k.k.k.k.k.k.k.k.k.k.k.k.k.k.k.k.k.F d f f f k.k.",
"k.k.w X.7 w 7 0 k.k.k.k.k.k.k.k.k.k.k.k.k.k.k.k.k.k.k.k.k.k.k.k.k.k.k.k.k.k.k.k.k.k.k.k.k.k.k.k.k.k.k.k.k.k.k.k.6 ) w V N f k.k.",
"k.k.k.A F > e 2 k.k.k.k.k.k.k.k.k.k.k.k.k.k.k.k.k.k.k.k.k.k.k.k.k.k.k.k.k.k.k.k.k.k.k.k.k.k.k.k.k.k.k.k.k.k.k.k.C V l l N k.k.k.",
"k.k.k.r @.5 7 3 q k.k.k.k.k.k.k.k.k.k.k.k.k.k.k.k.k.k.k.k.k.k.k.k.k.k.k.k.k.k.k.k.k.k.k.k.k.k.k.k.k.k.k.k.k.k.u ) f C V l k.k.k.",
"k.k.k.k.F J & w 2 k.k.k.k.k.k.k.k.k.k.k.k.k.k.k.k.k.k.k.k.k.k.k.k.k.k.k.k.k.k.k.k.k.k.k.k.k.k.k.k.k.k.k.k.k.k.^ V C C C k.k.k.k.",
"k.k.k.k.r X.w = 8 7 k.k.k.k.k.k.k.k.k.k.k.k.k.k.k.k.k.k.k.k.k.k.k.k.k.k.k.k.k.k.k.k.k.k.k.k.k.k.k.k.k.k.k.k.h ) V F Z V k.k.k.k.",
"k.k.k.k.k.B ..; 3 3 8 k.k.k.k.k.k.k.k.k.k.k.k.k.k.k.k.k.k.k.k.k.k.k.k.k.k.k.k.k.k.k.k.k.k.k.k.k.k.k.k.k.k.u ..z F Z Z k.k.k.k.k.",
"k.k.k.k.k.k.S B $ 4 2 7 k.k.k.k.k.k.k.k.k.k.k.k.k.k.k.k.k.k.k.k.k.k.k.k.k.k.k.k.k.k.k.k.k.k.k.k.k.k.k.k.u ..C ^ F ^ k.k.k.k.k.k.",
"k.k.k.k.k.k.w  .w $ 4 2 0 k.k.k.k.k.k.k.k.k.k.k.k.k.k.k.k.k.k.k.k.k.k.k.k.k.k.k.k.k.k.k.k.k.k.k.k.k.k.u ) ! F F ^ ! k.k.k.k.k.k.",
"k.k.k.k.k.k.k.j  .> $ 4 3 w k.k.k.k.k.k.k.k.k.k.k.k.k.k.k.k.k.k.k.k.k.k.k.k.k.k.k.k.k.k.k.k.k.k.k.k.y ) ^ ^ ^ ^ ^ k.k.k.k.k.k.k.",
"k.k.k.k.k.k.k.k.n G & $ 4 4 e k.k.k.k.k.k.k.k.k.k.k.k.k.k.k.k.k.k.k.k.k.k.k.k.k.k.k.k.k.k.k.k.k.k.u ` F F ^ ( ) k.k.k.k.k.k.k.k.",
"k.k.k.k.k.k.k.k.k.n n & $ 3 0 j k.k.k.k.k.k.k.k.k.k.k.k.k.k.k.k.k.k.k.k.k.k.k.k.k.k.k.k.k.k.k.k.p ..F F ( ( ) k.k.k.k.k.k.k.k.k.",
"k.k.k.k.k.k.k.k.k.k.j 8 & $ 2 0 k A k.k.k.k.k.k.k.k.k.k.k.k.k.k.k.k.k.k.k.k.k.k.k.k.k.k.k.k.6 z o.C F ^ ( ) k.k.k.k.k.k.k.k.k.k.",
"k.k.k.k.k.k.k.k.k.k.k.r 3 * @ * 8 j B k.k.k.k.k.k.k.k.k.k.k.k.k.k.k.k.k.k.k.k.k.k.k.k.k.k.p ) ^ N F ^ ) ) k.k.k.k.k.k.k.k.k.k.k.",
"k.k.k.k.k.k.k.k.k.k.k.k.B j 2 $ $ 2 q k S k.k.k.k.k.k.k.k.k.k.k.k.k.k.k.k.k.k.k.k.k.k.s F ) C C F F ) ) k.k.k.k.k.k.k.k.k.k.k.k.",
"k.k.k.k.k.k.k.k.k.k.k.k.k.J n e - $ % 2 e B S H k.k.k.k.k.k.k.k.k.k.k.k.k.k.k.k.w l ) G V l A Z G ..F k.k.k.k.k.k.k.k.k.k.k.k.k.",
"k.k.k.k.k.k.k.k.k.k.k.k.k.k.k.D k 0 - & & 2 8 j B S J H k.k.k.k.k.k.k.k.j k B D J F f l B A F I J k.k.k.k.k.k.k.k.k.k.k.k.k.k.k.",
"k.k.k.k.k.k.k.k.k.k.k.k.k.k.k.k.k.A j w 3 = * = 2 8 e k n B A S S A S S S A l e e j B B F J I F k.k.k.k.k.k.k.k.k.k.k.k.k.k.k.k.",
"k.k.k.k.k.k.k.k.k.k.k.k.k.k.k.k.k.k.k.D k q 8 2 - = * = - 2 3 4 4 4 4 8 9 e j j k l B  .U F k.k.k.k.k.k.k.k.k.k.k.k.k.k.k.k.k.k.",
"k.k.k.k.k.k.k.k.k.k.k.k.k.k.k.k.k.k.k.k.k.J A j e e 8 3 > > 2 3 4 7 0 0 w w w l F ..I k.k.k.k.k.k.k.k.k.k.k.k.k.k.k.k.k.k.k.k.k.",
"k.k.k.k.k.k.k.k.k.k.k.k.k.k.k.k.k.k.k.k.k.k.k.k.J G D S S A B l j r f f C F J G k.k.k.k.k.k.k.k.k.k.k.k.k.k.k.k.k.k.k.k.k.k.k.k.",
"k.k.k.k.k.k.k.k.k.k.k.k.k.k.k.k.k.k.k.k.k.k.k.k.k.k.k.k.k.k.k.k.k.k.k.k.k.k.k.k.k.k.k.k.k.k.k.k.k.k.k.k.k.k.k.k.k.k.k.k.k.k.k.k."
};
