/* XPM */
static char *result[] = {
/* columns rows colors chars-per-pixel */
"16 16 59 1 ",
"  c #74581E",
". c #77591E",
"X c #795B20",
"o c #7D5E21",
"O c #7D5F21",
"+ c #7F6023",
"@ c #816121",
"# c #856522",
"$ c #886724",
"% c #896825",
"& c #8B6925",
"* c #8F6C26",
"= c #8B6A29",
"- c #947027",
"; c #967228",
": c #977329",
"> c #96732C",
", c #99742B",
"< c #99752B",
"1 c #98742D",
"2 c #9B762C",
"3 c #9E782A",
"4 c #9C7931",
"5 c #9E7B34",
"6 c #A17B2C",
"7 c #A07A2D",
"8 c #A57E2E",
"9 c #A37D30",
"0 c #A37D31",
"q c #A88233",
"w c #AF8632",
"e c #A98335",
"r c #A88339",
"t c #AC8638",
"y c #AC8739",
"u c #AF883A",
"i c #AF8A3E",
"p c #B68A31",
"a c #B78B31",
"s c #B58A34",
"d c #BB8D30",
"f c #B88D35",
"g c #B18A39",
"h c #B08B3E",
"j c #B18B3E",
"k c #B38C3D",
"l c #C79734",
"z c #CC9B36",
"x c #B68F41",
"c c #BE9540",
"v c #BB9546",
"b c #BF9847",
"n c #C19F57",
"m c #C5A053",
"M c #CEA754",
"N c #D2AE5E",
"B c #D7B260",
"V c #D5B365",
"C c None",
/* pixels */
"CCCCCtfswwCCCCCC",
"CCCCbcCCCC36CCCC",
"CCnMCCCCCCCC-@CC",
"CCBCCCCCCCCCC$oC",
"CVCCCCCCCCCCCCOC",
"CNCCCCCCCCCCCC&.",
"mCCCCCCCCCCCCCC ",
"vCkuCC8CCdlCzCCX",
"yCCC97CCCCCCapC+",
"qCCCCCCCCCCCCCC=",
"C>CCCCCCCCCCCC54",
"C1CCCCCCCCCCCCrC",
"CC%CCCCCCCCCChiC",
"CC:#CCCCCCCCjxCC",
"CCCC*;CCCCegCCCC",
"CCCCCC,<20CCCCCC"
};
