<?xml version="1.0" encoding="UTF-8" standalone="no"?>
<!-- Generator: Adobe Illustrator 24.0.1, SVG Export Plug-In . SVG Version: 6.00 Build 0)  -->

<svg
   version="1.1"
   id="svg8"
   x="0px"
   y="0px"
   viewBox="0 0 24 24"
   style="enable-background:new 0 0 24 24;"
   xml:space="preserve"
   sodipodi:docname="btn-radio-active.svg"
   inkscape:version="1.2.2 (732a01da63, 2022-12-09)"
   xmlns:inkscape="http://www.inkscape.org/namespaces/inkscape"
   xmlns:sodipodi="http://sodipodi.sourceforge.net/DTD/sodipodi-0.dtd"
   xmlns="http://www.w3.org/2000/svg"
   xmlns:svg="http://www.w3.org/2000/svg"><defs
   id="defs8" />
<style
   type="text/css"
   id="style2">
	.st0{fill-rule:evenodd;clip-rule:evenodd;fill:#ce621c;}
</style>
<sodipodi:namedview
   bordercolor="#666666"
   borderopacity="1"
   gridtolerance="10"
   guidetolerance="10"
   id="namedview10"
   inkscape:current-layer="radiobttom_active"
   inkscape:cx="12.090226"
   inkscape:cy="12"
   inkscape:pageopacity="0"
   inkscape:pageshadow="2"
   inkscape:window-height="1017"
   inkscape:window-width="1920"
   inkscape:zoom="11.083333"
   objecttolerance="10"
   pagecolor="#ffffff"
   showgrid="false"
   inkscape:showpageshadow="2"
   inkscape:pagecheckerboard="0"
   inkscape:deskcolor="#d1d1d1"
   inkscape:window-x="-8"
   inkscape:window-y="-8"
   inkscape:window-maximized="1">
	</sodipodi:namedview>
<g
   id="radiobttom_active"
   transform="translate(-508 -240)">
	<path
   id="radio_on"
   class="st0"
   d="M520,246c-3.3,0-6,2.7-6,6s2.7,6,6,6s6-2.7,6-6S523.4,246,520,246L520,246z M520,240   c-6.6,0-12,5.4-12,12s5.4,12,12,12s12-5.4,12-12S526.6,240,520,240z M520,261.6c-5.3,0-9.6-4.3-9.6-9.6s4.3-9.6,9.6-9.6   s9.6,4.3,9.6,9.6C529.6,257.3,525.3,261.6,520,261.6z"
   style="fill:#5e6661;fill-opacity:1" />
</g>
</svg>
