<?xml version="1.0" encoding="UTF-8" standalone="no"?>
<!-- Generator: Adobe Illustrator 24.0.1, SVG Export Plug-In . SVG Version: 6.00 Build 0)  -->

<svg
   version="1.1"
   id="svg10"
   x="0px"
   y="0px"
   viewBox="0 0 24 40"
   style="enable-background:new 0 0 24 40;"
   xml:space="preserve"
   sodipodi:docname="ic-nav-address-active.svg"
   inkscape:version="1.2.2 (732a01da63, 2022-12-09)"
   xmlns:inkscape="http://www.inkscape.org/namespaces/inkscape"
   xmlns:sodipodi="http://sodipodi.sourceforge.net/DTD/sodipodi-0.dtd"
   xmlns="http://www.w3.org/2000/svg"
   xmlns:svg="http://www.w3.org/2000/svg"><defs
   id="defs38085" /><sodipodi:namedview
   id="namedview38083"
   pagecolor="#ffffff"
   bordercolor="#666666"
   borderopacity="1.0"
   inkscape:showpageshadow="2"
   inkscape:pageopacity="0.0"
   inkscape:pagecheckerboard="0"
   inkscape:deskcolor="#d1d1d1"
   showgrid="false"
   inkscape:zoom="5.9"
   inkscape:cx="12.033898"
   inkscape:cy="20"
   inkscape:window-width="1920"
   inkscape:window-height="1017"
   inkscape:window-x="-8"
   inkscape:window-y="-8"
   inkscape:window-maximized="1"
   inkscape:current-layer="g57" />
<style
   type="text/css"
   id="style38075">
	.st0{fill:none;}
	.st1{fill:#ce621c;}
</style>
<title
   id="title2">Address</title>
<desc
   id="desc4">Created with Sketch.</desc>
<g
   id="g57"
   transform="matrix(0.85833333,0,0,0.85833322,1,12.400003)">
	<path
   id="path2"
   class="st0"
   d="M0,0h24v24H0V0z M0,0h24v24H0V0z M0,0h24v24H0V0z" />
	<path
   id="path4"
   class="st1"
   d="M20,0H4v2h16V0z M4,24h16v-2H4V24z M20,4H4C2.9,4,2,4.9,2,6v12c0,1.1,0.9,2,2,2h16c1.1,0,2-0.9,2-2   V6C22,4.9,21.1,4,20,4z M12,6.8c1.2,0,2.3,1,2.3,2.3s-1,2.3-2.3,2.3s-2.3-1-2.3-2.3S10.8,6.8,12,6.8z M17,17H7v-1.5   c0-1.7,3.3-2.5,5-2.5s5,0.8,5,2.5V17z"
   style="fill:#5e6661;fill-opacity:1" />
</g>
</svg>
