<?xml version="1.0" encoding="UTF-8" standalone="no"?>
<!-- Generator: Adobe Illustrator 24.0.1, SVG Export Plug-In . SVG Version: 6.00 Build 0)  -->

<svg
   version="1.1"
   id="svg9"
   x="0px"
   y="0px"
   viewBox="0 0 24 40"
   style="enable-background:new 0 0 24 40;"
   xml:space="preserve"
   sodipodi:docname="ic-nav-settings-active.svg"
   inkscape:version="1.2.2 (732a01da63, 2022-12-09)"
   xmlns:inkscape="http://www.inkscape.org/namespaces/inkscape"
   xmlns:sodipodi="http://sodipodi.sourceforge.net/DTD/sodipodi-0.dtd"
   xmlns="http://www.w3.org/2000/svg"
   xmlns:svg="http://www.w3.org/2000/svg"><defs
   id="defs9015" /><sodipodi:namedview
   id="namedview9013"
   pagecolor="#ffffff"
   bordercolor="#666666"
   borderopacity="1.0"
   inkscape:showpageshadow="2"
   inkscape:pageopacity="0.0"
   inkscape:pagecheckerboard="0"
   inkscape:deskcolor="#d1d1d1"
   showgrid="false"
   inkscape:zoom="5.9"
   inkscape:cx="12.033898"
   inkscape:cy="20"
   inkscape:window-width="1920"
   inkscape:window-height="1017"
   inkscape:window-x="-8"
   inkscape:window-y="-8"
   inkscape:window-maximized="1"
   inkscape:current-layer="svg9" />
<style
   type="text/css"
   id="style9004">
	.st0{fill:none;}
	.st1{fill-rule:evenodd;clip-rule:evenodd;fill:#ce621c;}
</style>
<title
   id="title2">Settings</title>
<desc
   id="desc4">Created with Sketch.</desc>
<g
   id="Settings">
	<g
   id="g6"
   transform="translate(0,12.4)">
		<path
   id="path2"
   class="st0"
   d="M0,0h24v24H0V0z" />
		<path
   id="path4"
   class="st1"
   d="M19.1,12.9c0-0.3,0.1-0.6,0.1-0.9c0-0.3,0-0.6-0.1-0.9l2-1.6c0.2-0.1,0.2-0.4,0.1-0.6l-1.9-3.3    c-0.1-0.2-0.4-0.3-0.6-0.2l-2.4,1c-0.5-0.4-1-0.7-1.6-0.9l-0.4-2.5c0-0.2-0.2-0.4-0.5-0.4h-3.8c-0.2,0-0.4,0.2-0.5,0.4L9.3,5.3    C8.7,5.6,8.1,5.9,7.6,6.3l-2.4-1C5,5.2,4.8,5.3,4.7,5.5L2.7,8.9C2.6,9.1,2.7,9.3,2.9,9.5l2,1.6c0,0.3-0.1,0.6-0.1,0.9    s0,0.6,0.1,0.9l-2,1.6c-0.2,0.1-0.2,0.4-0.1,0.6l1.9,3.3c0.1,0.2,0.4,0.3,0.6,0.2l2.4-1c0.5,0.4,1,0.7,1.6,0.9l0.4,2.5    c0.1,0.2,0.2,0.4,0.5,0.4h3.8c0.2,0,0.4-0.2,0.5-0.4l0.4-2.5c0.6-0.2,1.1-0.6,1.6-0.9l2.4,1c0.2,0.1,0.5,0,0.6-0.2l1.9-3.3    c0.1-0.2,0.1-0.5-0.1-0.6L19.1,12.9z M12,15.6c-2,0-3.6-1.6-3.6-3.6S10,8.4,12,8.4s3.6,1.6,3.6,3.6S14,15.6,12,15.6z"
   style="fill:#5e6661;fill-opacity:1" />
	</g>
</g>
</svg>
