<?xml version="1.0" encoding="UTF-8" standalone="no"?>
<!-- Generator: Adobe Illustrator 24.0.1, SVG Export Plug-In . SVG Version: 6.00 Build 0)  -->

<svg
   version="1.1"
   id="svg10"
   x="0px"
   y="0px"
   viewBox="0 0 24 40"
   style="enable-background:new 0 0 24 40;"
   xml:space="preserve"
   sodipodi:docname="ic-nav-privacy-hover.svg"
   inkscape:version="1.2.2 (732a01da63, 2022-12-09)"
   xmlns:inkscape="http://www.inkscape.org/namespaces/inkscape"
   xmlns:sodipodi="http://sodipodi.sourceforge.net/DTD/sodipodi-0.dtd"
   xmlns="http://www.w3.org/2000/svg"
   xmlns:svg="http://www.w3.org/2000/svg"><defs
   id="defs15086" /><sodipodi:namedview
   id="namedview15084"
   pagecolor="#ffffff"
   bordercolor="#666666"
   borderopacity="1.0"
   inkscape:showpageshadow="2"
   inkscape:pageopacity="0.0"
   inkscape:pagecheckerboard="0"
   inkscape:deskcolor="#d1d1d1"
   showgrid="false"
   inkscape:zoom="5.9"
   inkscape:cx="12.033898"
   inkscape:cy="20"
   inkscape:window-width="1920"
   inkscape:window-height="1017"
   inkscape:window-x="-8"
   inkscape:window-y="-8"
   inkscape:window-maximized="1"
   inkscape:current-layer="svg10" />
<style
   type="text/css"
   id="style15075">
	.st0{fill:#ce621c;}
</style>
<title
   id="title2">Privacy</title>
<desc
   id="desc4">Created with Sketch.</desc>
<g
   id="Privacy">
	<g
   id="Group"
   transform="translate(1.000000, 13.000000)">
		<path
   id="Path_18869"
   class="st0"
   d="M20,10.1L17.8,0L11,1.2L4.2,0L2,10.1H0v2h22v-2H20z M5.8,2.3L11,3.2l5.2-0.9l1.7,7.8H4    L5.8,2.3z"
   style="fill:#5e6661;fill-opacity:1" />
		<path
   id="Path_18870"
   class="st0"
   d="M12,16.1h-2v-2H1v3.7c0.1,2.4,2.1,4.3,4.5,4.3c2.3-0.1,4.2-1.8,4.5-4H12c0.3,2.2,2.2,4,4.5,4    c2.4,0,4.4-1.9,4.5-4.3v-3.7h-9V16.1z M8,17.9c-0.1,1.3-1.2,2.3-2.5,2.3s-2.4-1-2.5-2.3v-1.7h5V17.9z M14,16.1h5v1.7    c-0.1,1.3-1.2,2.3-2.5,2.3s-2.4-1-2.5-2.3V16.1z"
   style="fill:#313532;fill-opacity:1" />
	</g>
</g>
</svg>
