<?xml version="1.0" encoding="UTF-8" standalone="no"?>
<!-- Generator: Adobe Illustrator 24.0.1, SVG Export Plug-In . SVG Version: 6.00 Build 0)  -->

<svg
   version="1.1"
   id="Layer_1"
   x="0px"
   y="0px"
   viewBox="0 0 24 24"
   style="enable-background:new 0 0 24 24;"
   xml:space="preserve"
   sodipodi:docname="ic-transaction-mint.svg"
   inkscape:version="1.2.2 (732a01da63, 2022-12-09)"
   xmlns:inkscape="http://www.inkscape.org/namespaces/inkscape"
   xmlns:sodipodi="http://sodipodi.sourceforge.net/DTD/sodipodi-0.dtd"
   xmlns="http://www.w3.org/2000/svg"
   xmlns:svg="http://www.w3.org/2000/svg"><defs
   id="defs4531" /><sodipodi:namedview
   id="namedview4529"
   pagecolor="#ffffff"
   bordercolor="#666666"
   borderopacity="1.0"
   inkscape:showpageshadow="2"
   inkscape:pageopacity="0.0"
   inkscape:pagecheckerboard="0"
   inkscape:deskcolor="#d1d1d1"
   showgrid="false"
   inkscape:zoom="9.8333333"
   inkscape:cx="12"
   inkscape:cy="12"
   inkscape:window-width="1920"
   inkscape:window-height="1017"
   inkscape:window-x="-8"
   inkscape:window-y="-8"
   inkscape:window-maximized="1"
   inkscape:current-layer="Group_8823" />
<style
   type="text/css"
   id="style4519">
	.st0{fill:none;}
	.st1{fill:#ce621c;}
</style>
<rect
   class="st0"
   width="24"
   height="24"
   id="rect4521" />
<g
   id="Group_8823">
	<path
   id="Path_18880"
   class="st1"
   d="M8,12c0,2.2,1.8,4,4,4s4-1.8,4-4s-1.8-4-4-4S8,9.8,8,12z M14,12c0,1.1-0.9,2-2,2s-2-0.9-2-2   s0.9-2,2-2S14,10.9,14,12z"
   style="fill:#5e6661;fill-opacity:1" />
	<path
   id="Path_18881"
   class="st1"
   d="M7,8H5.1C7.3,4.2,12.2,2.9,16,5.1c2.4,1.4,4,4,4,6.9h2c0-5.5-4.5-10-10-10C8.9,2,5.9,3.5,4,6   V5H2v5h5V8z"
   style="fill:#4b524e;fill-opacity:1" />
	<path
   id="Path_18882"
   class="st1"
   d="M17,16h1.9c-2.2,3.8-7.1,5.1-10.9,2.9c-2.4-1.4-4-4-4-6.9H2c0,5.5,4.5,10,10,10   c3.1,0,6.1-1.5,8-4v1h2v-5h-5V16z"
   style="fill:#768079;fill-opacity:1" />
</g>
<path
   id="Rectangle_4408"
   class="st0"
   d="M0,0h24v24H0V0z" />
</svg>
