<?xml version="1.0" encoding="UTF-8" standalone="no"?>
<!-- Generator: Adobe Illustrator 24.0.1, SVG Export Plug-In . SVG Version: 6.00 Build 0)  -->

<svg
   version="1.1"
   id="ic_empty_Dark_zpiv"
   x="0px"
   y="0px"
   viewBox="0 0 100 100"
   style="enable-background:new 0 0 100 100;"
   xml:space="preserve"
   sodipodi:docname="img-empty-privacy-dark.svg"
   inkscape:version="1.2.2 (732a01da63, 2022-12-09)"
   xmlns:inkscape="http://www.inkscape.org/namespaces/inkscape"
   xmlns:sodipodi="http://sodipodi.sourceforge.net/DTD/sodipodi-0.dtd"
   xmlns:xlink="http://www.w3.org/1999/xlink"
   xmlns="http://www.w3.org/2000/svg"
   xmlns:svg="http://www.w3.org/2000/svg"><defs
   id="defs54790" /><sodipodi:namedview
   id="namedview54788"
   pagecolor="#ffffff"
   bordercolor="#666666"
   borderopacity="1.0"
   inkscape:showpageshadow="2"
   inkscape:pageopacity="0.0"
   inkscape:pagecheckerboard="0"
   inkscape:deskcolor="#d1d1d1"
   showgrid="false"
   inkscape:zoom="18.88"
   inkscape:cx="50"
   inkscape:cy="50"
   inkscape:window-width="1920"
   inkscape:window-height="1017"
   inkscape:window-x="-8"
   inkscape:window-y="-8"
   inkscape:window-maximized="1"
   inkscape:current-layer="Group_9081" />
<style
   type="text/css"
   id="style54773">
	.st0{fill:#ce621c;}
	.st1{fill:#A09EA5;}
</style>
<g
   id="Group_9081">
	<path
   id="Path_19026"
   class="st0"
   d="M50,26c-13.3,0-24,10.7-24,24s10.7,24,24,24s24-10.7,24-24S63.3,26,50,26z M50,68   c-9.9,0-18-8.1-18-18s8.1-18,18-18s18,8.1,18,18S59.9,68,50,68z"
   style="fill:#5e6661;fill-opacity:1" />
	<g
   id="Group_9080">
		<g
   id="Group_9078">
			<path
   id="Path_19027"
   class="st1"
   d="M50,32c-10.5,0-19,8.3-19,18.5S39.5,69,50,69s19-8.3,19-18.5S60.5,32,50,32z M50,67.1     c-9.4,0-17-7.4-17-16.6s7.6-16.6,17-16.6s17,7.4,17,16.6S59.4,67.1,50,67.1z" />
			<path
   id="Rectangle_4744"
   class="st1"
   d="M83,56h2v4h-2V56z" />
			<path
   id="Rectangle_4745"
   class="st1"
   d="M83,44h2v8h-2V44z" />
			<path
   id="Rectangle_4746"
   class="st1"
   d="M15,48h2v8h-2V48z" />
			<path
   id="Rectangle_4747"
   class="st1"
   d="M15,40h2v4h-2V40z" />
			<path
   id="Path_19028"
   class="st1"
   d="M95.2,71H85v-7h-2v9h7.8L76,90.5L61.2,73H68v-2h-4.5c11.6-7.5,15-22.9,7.5-34.5     c-6.4-9.9-18.9-14-29.9-9.8L24,6.5L4.8,29H15v7h2v-9H9.2L24,9.5L38.8,27H32v2h4.5c-11.6,7.5-15,22.9-7.5,34.5     c6.4,9.9,18.9,14,29.9,9.8L76,93.5L95.2,71z M27,50c0-12.7,10.3-23,23-23s23,10.3,23,23S62.7,73,50,73S27,62.7,27,50z" />
		</g>
	</g>
</g>
<image
   style="overflow:visible;"
   width="1185"
   height="1044"
   xlink:href="img-logo-pivx@3x.png"
   transform="matrix(3.037975e-02 0 0 3.171002e-02 32 33.9474)"
   id="image54785">
</image>
</svg>
